<?xml version="1.0" standalone="no"?>
<!DOCTYPE svg PUBLIC "-//W3C//DTD SVG 1.1//EN" "http://www.w3.org/Graphics/SVG/1.1/DTD/svg11.dtd">

<svg width="608.0" height="188.0" viewBox="0 0 608.0 188.0" version="1.1" xmlns="http://www.w3.org/2000/svg" xmlns:xlink="http://www.w3.org/1999/xlink">
<!-- automatically generated by aafigure --><g>
    <line x1="75.33333333333334" y1="3.0" x2="75.33333333333334" y2="17.0" stroke="#000000" stroke-width="2.0" />
    <line x1="82.33333333333334" y1="3.0" x2="82.33333333333334" y2="17.0" stroke="#000000" stroke-width="2.0" />
    <line x1="75.33333333333334" y1="17.0" x2="75.33333333333334" y2="31.0" stroke="#000000" stroke-width="2.0" />
    <line x1="82.33333333333334" y1="17.0" x2="82.33333333333334" y2="31.0" stroke="#000000" stroke-width="2.0" />
    <line x1="75.33333333333334" y1="31.0" x2="75.33333333333334" y2="45.0" stroke="#000000" stroke-width="2.0" />
    <line x1="82.33333333333334" y1="31.0" x2="82.33333333333334" y2="45.0" stroke="#000000" stroke-width="2.0" />
    <line x1="75.33333333333334" y1="45.0" x2="75.33333333333334" y2="59.0" stroke="#000000" stroke-width="2.0" />
    <line x1="82.33333333333334" y1="45.0" x2="82.33333333333334" y2="59.0" stroke="#000000" stroke-width="2.0" />
    <line x1="75.33333333333334" y1="59.0" x2="75.33333333333334" y2="73.0" stroke="#000000" stroke-width="2.0" />
    <line x1="82.33333333333334" y1="59.0" x2="82.33333333333334" y2="73.0" stroke="#000000" stroke-width="2.0" />
    <line x1="75.33333333333334" y1="73.0" x2="75.33333333333334" y2="87.0" stroke="#000000" stroke-width="2.0" />
    <line x1="82.33333333333334" y1="73.0" x2="82.33333333333334" y2="87.0" stroke="#000000" stroke-width="2.0" />
    <line x1="75.33333333333334" y1="87.0" x2="75.33333333333334" y2="101.0" stroke="#000000" stroke-width="2.0" />
    <line x1="82.33333333333334" y1="87.0" x2="82.33333333333334" y2="101.0" stroke="#000000" stroke-width="2.0" />
    <line x1="75.33333333333334" y1="101.0" x2="75.33333333333334" y2="115.0" stroke="#000000" stroke-width="2.0" />
    <line x1="82.33333333333334" y1="101.0" x2="82.33333333333334" y2="115.0" stroke="#000000" stroke-width="2.0" />
    <line x1="75.33333333333334" y1="115.0" x2="75.33333333333334" y2="129.0" stroke="#000000" stroke-width="2.0" />
    <line x1="82.33333333333334" y1="115.0" x2="82.33333333333334" y2="129.0" stroke="#000000" stroke-width="2.0" />
    <line x1="75.33333333333334" y1="129.0" x2="75.33333333333334" y2="143.0" stroke="#000000" stroke-width="2.0" />
    <line x1="82.33333333333334" y1="129.0" x2="82.33333333333334" y2="143.0" stroke="#000000" stroke-width="2.0" />
    <line x1="75.33333333333334" y1="143.0" x2="75.33333333333334" y2="157.0" stroke="#000000" stroke-width="2.0" />
    <line x1="82.33333333333334" y1="143.0" x2="82.33333333333334" y2="157.0" stroke="#000000" stroke-width="2.0" />
</g>
<g>
    <text x="87.0" y="14.9" font-family="monospace" font-size="14.0" fill="#000000" >
  ?
    </text>
    <text x="87.0" y="28.900000000000002" font-family="monospace" font-size="14.0" fill="#000000" >
  ?
    </text>
    <text x="87.0" y="42.9" font-family="monospace" font-size="14.0" fill="#000000" >
  ?
    </text>
    <text x="87.0" y="56.9" font-family="monospace" font-size="14.0" fill="#000000" >
  ?
    </text>
    <text x="87.0" y="70.89999999999999" font-family="monospace" font-size="14.0" fill="#000000" >
  ?
    </text>
    <text x="87.0" y="84.89999999999999" font-family="monospace" font-size="14.0" fill="#000000" >
  ?
    </text>
    <text x="87.0" y="98.89999999999999" font-family="monospace" font-size="14.0" fill="#000000" >
  ?
    </text>
    <text x="87.0" y="112.89999999999999" font-family="monospace" font-size="14.0" fill="#000000" >
  ?
    </text>
    <text x="87.0" y="126.89999999999999" font-family="monospace" font-size="14.0" fill="#000000" >
  ?
    </text>
    <text x="87.0" y="140.9" font-family="monospace" font-size="14.0" fill="#000000" >
  ?
    </text>
    <text x="87.0" y="154.9" font-family="monospace" font-size="14.0" fill="#000000" >
  ?
    </text>
</g>
<line x1="122.0" y1="3.0" x2="122.0" y2="157.0" stroke="#000000" stroke-width="2.0" />
<line x1="416.0" y1="17.0" x2="556.0" y2="17.0" stroke="#000000" stroke-width="2.0" />
<line x1="416.0" y1="17.0" x2="416.0" y2="129.0" stroke="#000000" stroke-width="2.0" />
<line x1="276.0" y1="129.0" x2="416.0" y2="129.0" stroke="#000000" stroke-width="2.0" />
<line x1="276.0" y1="129.0" x2="276.0" y2="157.0" stroke="#000000" stroke-width="2.0" />
<line x1="122.0" y1="157.0" x2="276.0" y2="157.0" stroke="#000000" stroke-width="2.0" />
<line x1="122.0" y1="171.0" x2="556.0" y2="171.0" stroke="#000000" stroke-width="2.0" />
<text x="3.0" y="14.9" font-family="monospace" font-size="14.0" fill="#000000" >
  0016
</text>
<text x="3.0" y="28.900000000000002" font-family="monospace" font-size="14.0" fill="#000000" >
  0015
</text>
<text x="3.0" y="42.9" font-family="monospace" font-size="14.0" fill="#000000" >
  0014
</text>
<text x="3.0" y="56.9" font-family="monospace" font-size="14.0" fill="#000000" >
  0013
</text>
<text x="3.0" y="70.89999999999999" font-family="monospace" font-size="14.0" fill="#000000" >
  0012
</text>
<text x="3.0" y="84.89999999999999" font-family="monospace" font-size="14.0" fill="#000000" >
  0011
</text>
<text x="3.0" y="98.89999999999999" font-family="monospace" font-size="14.0" fill="#000000" >
  0010
</text>
<text x="3.0" y="112.89999999999999" font-family="monospace" font-size="14.0" fill="#000000" >
  0009
</text>
<text x="3.0" y="126.89999999999999" font-family="monospace" font-size="14.0" fill="#000000" >
  0008
</text>
<text x="3.0" y="140.9" font-family="monospace" font-size="14.0" fill="#000000" >
  0007
</text>
<text x="3.0" y="154.9" font-family="monospace" font-size="14.0" fill="#000000" >
  0006
</text>
<text x="45.0" y="182.9" font-family="monospace" font-size="14.0" fill="#000000" >
  13:04:03
</text>
<text x="269.0" y="182.9" font-family="monospace" font-size="14.0" fill="#000000" >
  13:04:13
</text>
<text x="493.0" y="182.9" font-family="monospace" font-size="14.0" fill="#000000" >
  13:04:23
</text>
</svg>
