<?xml version="1.0" standalone="no"?>
<!DOCTYPE svg PUBLIC "-//W3C//DTD SVG 1.1//EN" "http://www.w3.org/Graphics/SVG/1.1/DTD/svg11.dtd">

<svg width="734.0" height="342.0" viewBox="0 0 734.0 342.0" version="1.1" xmlns="http://www.w3.org/2000/svg" xmlns:xlink="http://www.w3.org/1999/xlink">
<!-- automatically generated by aafigure --><text x="507.0" y="84.89999999999999" font-family="monospace" font-size="14.0" fill="#000000" >
  : --,--%
</text>
<text x="507.0" y="98.89999999999999" font-family="monospace" font-size="14.0" fill="#000000" >
  : ------------
</text>
<text x="507.0" y="112.89999999999999" font-family="monospace" font-size="14.0" fill="#000000" >
  : ------------
</text>
<text x="367.0" y="168.9" font-family="monospace" font-size="14.0" fill="#000000" >
  : -----
</text>
<text x="367.0" y="182.9" font-family="monospace" font-size="14.0" fill="#000000" >
  : -----
</text>
<text x="129.0" y="210.9" font-family="monospace" font-size="14.0" fill="#000000" >
  --- : -----
</text>
<text x="129.0" y="224.9" font-family="monospace" font-size="14.0" fill="#000000" >
  --- : -----
</text>
<text x="129.0" y="238.90000000000003" font-family="monospace" font-size="14.0" fill="#000000" >
  --- : -----
</text>
<text x="367.0" y="280.90000000000003" font-family="monospace" font-size="14.0" fill="#000000" >
  : -----
</text>
<text x="367.0" y="294.90000000000003" font-family="monospace" font-size="14.0" fill="#000000" >
  : -----
</text>
<text x="129.0" y="322.90000000000003" font-family="monospace" font-size="14.0" fill="#000000" >
  --- : -----
</text>
<text x="129.0" y="336.90000000000003" font-family="monospace" font-size="14.0" fill="#000000" >
  --- : -----
</text>
<g>
    <circle cx="66.0" cy="94.0" r="6.3" stroke="#000000" stroke-width="2.0" fill="#000000" />    <line x1="73.0" y1="87.0" x2="73.0" y2="101.0" stroke="#000000" stroke-width="2.0" />
    <line x1="59.0" y1="87.0" x2="59.0" y2="101.0" stroke="#000000" stroke-width="2.0" />
    <line x1="59.0" y1="87.0" x2="73.0" y2="87.0" stroke="#000000" stroke-width="2.0" />
    <circle cx="66.0" cy="108.0" r="6.3" stroke="#000000" stroke-width="2.0" fill="#000000" />    <line x1="73.0" y1="101.0" x2="73.0" y2="115.0" stroke="#000000" stroke-width="2.0" />
    <line x1="59.0" y1="101.0" x2="59.0" y2="115.0" stroke="#000000" stroke-width="2.0" />
    <line x1="59.0" y1="115.0" x2="73.0" y2="115.0" stroke="#000000" stroke-width="2.0" />
</g>
<g>
    <line x1="73.0" y1="87.0" x2="73.0" y2="87.0" stroke="#000000" stroke-width="2.0" />
    <line x1="73.0" y1="101.0" x2="87.0" y2="87.0" stroke="#000000" stroke-width="2.0" />
    <line x1="73.0" y1="94.0" x2="80.0" y2="87.0" stroke="#000000" stroke-width="2.0" />
    <line x1="80.0" y1="101.0" x2="87.0" y2="94.0" stroke="#000000" stroke-width="2.0" />
    <line x1="73.0" y1="101.0" x2="73.0" y2="101.0" stroke="#000000" stroke-width="2.0" />
    <line x1="73.0" y1="115.0" x2="87.0" y2="101.0" stroke="#000000" stroke-width="2.0" />
    <line x1="73.0" y1="108.0" x2="80.0" y2="101.0" stroke="#000000" stroke-width="2.0" />
    <line x1="80.0" y1="115.0" x2="87.0" y2="108.0" stroke="#000000" stroke-width="2.0" />
</g>
<g>
    <line x1="87.0" y1="87.0" x2="87.0" y2="87.0" stroke="#000000" stroke-width="2.0" />
    <line x1="87.0" y1="101.0" x2="101.0" y2="87.0" stroke="#000000" stroke-width="2.0" />
    <line x1="87.0" y1="101.0" x2="87.0" y2="101.0" stroke="#000000" stroke-width="2.0" />
    <line x1="87.0" y1="115.0" x2="101.0" y2="101.0" stroke="#000000" stroke-width="2.0" />
</g>
<g>
    <text x="101.0" y="98.89999999999999" font-family="monospace" font-size="14.0" fill="#000000" >
  ?
    </text>
    <text x="101.0" y="112.89999999999999" font-family="monospace" font-size="14.0" fill="#000000" >
  ?
    </text>
</g>
<g>
    <line x1="115.0" y1="87.0" x2="129.0" y2="101.0" stroke="#000000" stroke-width="2.0" />
    <line x1="129.0" y1="87.0" x2="129.0" y2="87.0" stroke="#000000" stroke-width="2.0" />
    <line x1="115.0" y1="91.66666666666666" x2="124.33333333333334" y2="101.0" stroke="#000000" stroke-width="2.0" />
    <line x1="124.33333333333334" y1="87.0" x2="129.0" y2="91.66666666666666" stroke="#000000" stroke-width="2.0" />
    <line x1="115.0" y1="96.33333333333334" x2="119.66666666666666" y2="101.0" stroke="#000000" stroke-width="2.0" />
    <line x1="119.66666666666666" y1="87.0" x2="129.0" y2="96.33333333333334" stroke="#000000" stroke-width="2.0" />
    <line x1="115.0" y1="87.0" x2="115.0" y2="87.0" stroke="#000000" stroke-width="2.0" />
    <line x1="115.0" y1="101.0" x2="129.0" y2="87.0" stroke="#000000" stroke-width="2.0" />
    <line x1="115.0" y1="91.66666666666666" x2="119.66666666666667" y2="87.0" stroke="#000000" stroke-width="2.0" />
    <line x1="119.66666666666667" y1="101.0" x2="129.0" y2="91.66666666666666" stroke="#000000" stroke-width="2.0" />
    <line x1="115.0" y1="96.33333333333334" x2="124.33333333333333" y2="87.0" stroke="#000000" stroke-width="2.0" />
    <line x1="124.33333333333333" y1="101.0" x2="129.0" y2="96.33333333333334" stroke="#000000" stroke-width="2.0" />
    <line x1="115.0" y1="101.0" x2="129.0" y2="115.0" stroke="#000000" stroke-width="2.0" />
    <line x1="129.0" y1="101.0" x2="129.0" y2="101.0" stroke="#000000" stroke-width="2.0" />
    <line x1="115.0" y1="105.66666666666666" x2="124.33333333333334" y2="115.0" stroke="#000000" stroke-width="2.0" />
    <line x1="124.33333333333334" y1="101.0" x2="129.0" y2="105.66666666666666" stroke="#000000" stroke-width="2.0" />
    <line x1="115.0" y1="110.33333333333334" x2="119.66666666666666" y2="115.0" stroke="#000000" stroke-width="2.0" />
    <line x1="119.66666666666666" y1="101.0" x2="129.0" y2="110.33333333333334" stroke="#000000" stroke-width="2.0" />
    <line x1="115.0" y1="101.0" x2="115.0" y2="101.0" stroke="#000000" stroke-width="2.0" />
    <line x1="115.0" y1="115.0" x2="129.0" y2="101.0" stroke="#000000" stroke-width="2.0" />
    <line x1="115.0" y1="105.66666666666666" x2="119.66666666666667" y2="101.0" stroke="#000000" stroke-width="2.0" />
    <line x1="119.66666666666667" y1="115.0" x2="129.0" y2="105.66666666666666" stroke="#000000" stroke-width="2.0" />
    <line x1="115.0" y1="110.33333333333334" x2="124.33333333333333" y2="101.0" stroke="#000000" stroke-width="2.0" />
    <line x1="124.33333333333333" y1="115.0" x2="129.0" y2="110.33333333333334" stroke="#000000" stroke-width="2.0" />
</g>
<g>
    <line x1="138.89800000000002" y1="87.0" x2="143.0" y2="91.102" stroke="#000000" stroke-width="2.0" />
    <line x1="129.0" y1="96.898" x2="133.10199999999998" y2="101.0" stroke="#000000" stroke-width="2.0" />
    <line x1="138.89800000000002" y1="101.0" x2="143.0" y2="105.102" stroke="#000000" stroke-width="2.0" />
    <line x1="129.0" y1="110.898" x2="133.10199999999998" y2="115.0" stroke="#000000" stroke-width="2.0" />
</g>
<g>
    <line x1="143.0" y1="87.0" x2="143.0" y2="87.0" stroke="#000000" stroke-width="2.0" />
    <line x1="143.0" y1="101.0" x2="157.0" y2="87.0" stroke="#000000" stroke-width="2.0" />
    <line x1="143.0" y1="94.0" x2="150.0" y2="87.0" stroke="#000000" stroke-width="2.0" />
    <line x1="150.0" y1="101.0" x2="157.0" y2="94.0" stroke="#000000" stroke-width="2.0" />
    <line x1="143.0" y1="101.0" x2="143.0" y2="101.0" stroke="#000000" stroke-width="2.0" />
    <line x1="143.0" y1="115.0" x2="157.0" y2="101.0" stroke="#000000" stroke-width="2.0" />
    <line x1="143.0" y1="108.0" x2="150.0" y2="101.0" stroke="#000000" stroke-width="2.0" />
    <line x1="150.0" y1="115.0" x2="157.0" y2="108.0" stroke="#000000" stroke-width="2.0" />
</g>
<g>
    <line x1="171.0" y1="87.0" x2="185.0" y2="101.0" stroke="#000000" stroke-width="2.0" />
    <line x1="185.0" y1="87.0" x2="185.0" y2="87.0" stroke="#000000" stroke-width="2.0" />
    <line x1="171.0" y1="91.66666666666666" x2="180.33333333333331" y2="101.0" stroke="#000000" stroke-width="2.0" />
    <line x1="180.33333333333331" y1="87.0" x2="185.0" y2="91.66666666666666" stroke="#000000" stroke-width="2.0" />
    <line x1="171.0" y1="96.33333333333334" x2="175.66666666666669" y2="101.0" stroke="#000000" stroke-width="2.0" />
    <line x1="175.66666666666669" y1="87.0" x2="185.0" y2="96.33333333333334" stroke="#000000" stroke-width="2.0" />
    <line x1="171.0" y1="87.0" x2="171.0" y2="87.0" stroke="#000000" stroke-width="2.0" />
    <line x1="171.0" y1="101.0" x2="185.0" y2="87.0" stroke="#000000" stroke-width="2.0" />
    <line x1="171.0" y1="91.66666666666666" x2="175.66666666666669" y2="87.0" stroke="#000000" stroke-width="2.0" />
    <line x1="175.66666666666669" y1="101.0" x2="185.0" y2="91.66666666666666" stroke="#000000" stroke-width="2.0" />
    <line x1="171.0" y1="96.33333333333334" x2="180.33333333333331" y2="87.0" stroke="#000000" stroke-width="2.0" />
    <line x1="180.33333333333331" y1="101.0" x2="185.0" y2="96.33333333333334" stroke="#000000" stroke-width="2.0" />
    <line x1="171.0" y1="101.0" x2="185.0" y2="115.0" stroke="#000000" stroke-width="2.0" />
    <line x1="185.0" y1="101.0" x2="185.0" y2="101.0" stroke="#000000" stroke-width="2.0" />
    <line x1="171.0" y1="105.66666666666666" x2="180.33333333333331" y2="115.0" stroke="#000000" stroke-width="2.0" />
    <line x1="180.33333333333331" y1="101.0" x2="185.0" y2="105.66666666666666" stroke="#000000" stroke-width="2.0" />
    <line x1="171.0" y1="110.33333333333334" x2="175.66666666666669" y2="115.0" stroke="#000000" stroke-width="2.0" />
    <line x1="175.66666666666669" y1="101.0" x2="185.0" y2="110.33333333333334" stroke="#000000" stroke-width="2.0" />
    <line x1="171.0" y1="101.0" x2="171.0" y2="101.0" stroke="#000000" stroke-width="2.0" />
    <line x1="171.0" y1="115.0" x2="185.0" y2="101.0" stroke="#000000" stroke-width="2.0" />
    <line x1="171.0" y1="105.66666666666666" x2="175.66666666666669" y2="101.0" stroke="#000000" stroke-width="2.0" />
    <line x1="175.66666666666669" y1="115.0" x2="185.0" y2="105.66666666666666" stroke="#000000" stroke-width="2.0" />
    <line x1="171.0" y1="110.33333333333334" x2="180.33333333333331" y2="101.0" stroke="#000000" stroke-width="2.0" />
    <line x1="180.33333333333331" y1="115.0" x2="185.0" y2="110.33333333333334" stroke="#000000" stroke-width="2.0" />
</g>
<g>
    <text x="185.0" y="98.89999999999999" font-family="monospace" font-size="14.0" fill="#000000" >
  ?
    </text>
    <text x="185.0" y="112.89999999999999" font-family="monospace" font-size="14.0" fill="#000000" >
  ?
    </text>
</g>
<g>
    <line x1="172.16666666666669" y1="157.0" x2="172.16666666666669" y2="171.0" stroke="#000000" stroke-width="2.0" />
    <line x1="176.83333333333331" y1="157.0" x2="176.83333333333331" y2="171.0" stroke="#000000" stroke-width="2.0" />
    <line x1="181.5" y1="157.0" x2="181.5" y2="171.0" stroke="#000000" stroke-width="2.0" />
    <line x1="171.0" y1="158.16666666666669" x2="185.0" y2="158.16666666666669" stroke="#000000" stroke-width="2.0" />
    <line x1="171.0" y1="162.83333333333331" x2="185.0" y2="162.83333333333331" stroke="#000000" stroke-width="2.0" />
    <line x1="171.0" y1="167.5" x2="185.0" y2="167.5" stroke="#000000" stroke-width="2.0" />
    <line x1="185.0" y1="157.0" x2="185.0" y2="171.0" stroke="#000000" stroke-width="2.0" />
    <line x1="171.0" y1="157.0" x2="171.0" y2="171.0" stroke="#000000" stroke-width="2.0" />
    <line x1="171.0" y1="157.0" x2="185.0" y2="157.0" stroke="#000000" stroke-width="2.0" />
    <line x1="172.16666666666669" y1="171.0" x2="172.16666666666669" y2="185.0" stroke="#000000" stroke-width="2.0" />
    <line x1="176.83333333333331" y1="171.0" x2="176.83333333333331" y2="185.0" stroke="#000000" stroke-width="2.0" />
    <line x1="181.5" y1="171.0" x2="181.5" y2="185.0" stroke="#000000" stroke-width="2.0" />
    <line x1="171.0" y1="172.16666666666669" x2="185.0" y2="172.16666666666669" stroke="#000000" stroke-width="2.0" />
    <line x1="171.0" y1="176.83333333333331" x2="185.0" y2="176.83333333333331" stroke="#000000" stroke-width="2.0" />
    <line x1="171.0" y1="181.5" x2="185.0" y2="181.5" stroke="#000000" stroke-width="2.0" />
    <line x1="185.0" y1="171.0" x2="185.0" y2="185.0" stroke="#000000" stroke-width="2.0" />
    <line x1="171.0" y1="171.0" x2="171.0" y2="185.0" stroke="#000000" stroke-width="2.0" />
    <line x1="171.0" y1="185.0" x2="185.0" y2="185.0" stroke="#000000" stroke-width="2.0" />
</g>
<g>
    <line x1="185.0" y1="157.0" x2="185.0" y2="157.0" stroke="#000000" stroke-width="2.0" />
    <line x1="185.0" y1="171.0" x2="199.0" y2="157.0" stroke="#000000" stroke-width="2.0" />
    <line x1="185.0" y1="164.0" x2="192.0" y2="157.0" stroke="#000000" stroke-width="2.0" />
    <line x1="192.0" y1="171.0" x2="199.0" y2="164.0" stroke="#000000" stroke-width="2.0" />
    <line x1="185.0" y1="171.0" x2="185.0" y2="171.0" stroke="#000000" stroke-width="2.0" />
    <line x1="185.0" y1="185.0" x2="199.0" y2="171.0" stroke="#000000" stroke-width="2.0" />
    <line x1="185.0" y1="178.0" x2="192.0" y2="171.0" stroke="#000000" stroke-width="2.0" />
    <line x1="192.0" y1="185.0" x2="199.0" y2="178.0" stroke="#000000" stroke-width="2.0" />
</g>
<g>
    <text x="199.0" y="168.9" font-family="monospace" font-size="14.0" fill="#000000" >
  ?
    </text>
    <text x="199.0" y="182.9" font-family="monospace" font-size="14.0" fill="#000000" >
  ?
    </text>
</g>
<g>
    <line x1="214.16666666666669" y1="157.0" x2="214.16666666666669" y2="171.0" stroke="#000000" stroke-width="2.0" />
    <line x1="218.83333333333331" y1="157.0" x2="218.83333333333331" y2="171.0" stroke="#000000" stroke-width="2.0" />
    <line x1="223.5" y1="157.0" x2="223.5" y2="171.0" stroke="#000000" stroke-width="2.0" />
    <line x1="214.16666666666669" y1="171.0" x2="214.16666666666669" y2="185.0" stroke="#000000" stroke-width="2.0" />
    <line x1="218.83333333333331" y1="171.0" x2="218.83333333333331" y2="185.0" stroke="#000000" stroke-width="2.0" />
    <line x1="223.5" y1="171.0" x2="223.5" y2="185.0" stroke="#000000" stroke-width="2.0" />
</g>
<g>
    <line x1="229.33333333333334" y1="157.0" x2="229.33333333333334" y2="171.0" stroke="#000000" stroke-width="2.0" />
    <line x1="236.33333333333334" y1="157.0" x2="236.33333333333334" y2="171.0" stroke="#000000" stroke-width="2.0" />
    <line x1="227.0" y1="159.33333333333331" x2="241.0" y2="159.33333333333331" stroke="#000000" stroke-width="2.0" />
    <line x1="227.0" y1="166.33333333333331" x2="241.0" y2="166.33333333333331" stroke="#000000" stroke-width="2.0" />
    <line x1="229.33333333333334" y1="171.0" x2="229.33333333333334" y2="185.0" stroke="#000000" stroke-width="2.0" />
    <line x1="236.33333333333334" y1="171.0" x2="236.33333333333334" y2="185.0" stroke="#000000" stroke-width="2.0" />
    <line x1="227.0" y1="173.33333333333331" x2="241.0" y2="173.33333333333331" stroke="#000000" stroke-width="2.0" />
    <line x1="227.0" y1="180.33333333333331" x2="241.0" y2="180.33333333333331" stroke="#000000" stroke-width="2.0" />
</g>
<g>
    <line x1="241.0" y1="159.33333333333331" x2="255.0" y2="159.33333333333331" stroke="#000000" stroke-width="2.0" />
    <line x1="241.0" y1="166.33333333333331" x2="255.0" y2="166.33333333333331" stroke="#000000" stroke-width="2.0" />
    <line x1="241.0" y1="173.33333333333331" x2="255.0" y2="173.33333333333331" stroke="#000000" stroke-width="2.0" />
    <line x1="241.0" y1="180.33333333333331" x2="255.0" y2="180.33333333333331" stroke="#000000" stroke-width="2.0" />
</g>
<g>
    <text x="255.0" y="168.9" font-family="monospace" font-size="14.0" fill="#000000" >
  ?
    </text>
    <text x="255.0" y="182.9" font-family="monospace" font-size="14.0" fill="#000000" >
  ?
    </text>
</g>
<g>
    <line x1="269.0" y1="157.0" x2="269.0" y2="157.0" stroke="#000000" stroke-width="2.0" />
    <line x1="269.0" y1="171.0" x2="283.0" y2="157.0" stroke="#000000" stroke-width="2.0" />
    <line x1="269.0" y1="164.0" x2="276.0" y2="157.0" stroke="#000000" stroke-width="2.0" />
    <line x1="276.0" y1="171.0" x2="283.0" y2="164.0" stroke="#000000" stroke-width="2.0" />
    <line x1="269.0" y1="171.0" x2="269.0" y2="171.0" stroke="#000000" stroke-width="2.0" />
    <line x1="269.0" y1="185.0" x2="283.0" y2="171.0" stroke="#000000" stroke-width="2.0" />
    <line x1="269.0" y1="178.0" x2="276.0" y2="171.0" stroke="#000000" stroke-width="2.0" />
    <line x1="276.0" y1="185.0" x2="283.0" y2="178.0" stroke="#000000" stroke-width="2.0" />
</g>
<g>
    <line x1="306.898" y1="157.0" x2="311.0" y2="161.10199999999998" stroke="#000000" stroke-width="2.0" />
    <line x1="297.0" y1="166.89800000000002" x2="301.102" y2="171.0" stroke="#000000" stroke-width="2.0" />
    <line x1="311.0" y1="157.0" x2="311.0" y2="171.0" stroke="#000000" stroke-width="2.0" />
    <line x1="297.0" y1="157.0" x2="297.0" y2="171.0" stroke="#000000" stroke-width="2.0" />
    <line x1="297.0" y1="157.0" x2="311.0" y2="157.0" stroke="#000000" stroke-width="2.0" />
    <line x1="306.898" y1="171.0" x2="311.0" y2="175.10199999999998" stroke="#000000" stroke-width="2.0" />
    <line x1="297.0" y1="180.89800000000002" x2="301.102" y2="185.0" stroke="#000000" stroke-width="2.0" />
    <line x1="311.0" y1="171.0" x2="311.0" y2="185.0" stroke="#000000" stroke-width="2.0" />
    <line x1="297.0" y1="171.0" x2="297.0" y2="185.0" stroke="#000000" stroke-width="2.0" />
    <line x1="297.0" y1="185.0" x2="311.0" y2="185.0" stroke="#000000" stroke-width="2.0" />
</g>
<g>
    <line x1="311.0" y1="157.0" x2="325.0" y2="171.0" stroke="#000000" stroke-width="2.0" />
    <line x1="325.0" y1="157.0" x2="325.0" y2="157.0" stroke="#000000" stroke-width="2.0" />
    <line x1="311.0" y1="161.66666666666669" x2="320.33333333333337" y2="171.0" stroke="#000000" stroke-width="2.0" />
    <line x1="320.33333333333337" y1="157.0" x2="325.0" y2="161.66666666666669" stroke="#000000" stroke-width="2.0" />
    <line x1="311.0" y1="166.33333333333331" x2="315.66666666666663" y2="171.0" stroke="#000000" stroke-width="2.0" />
    <line x1="315.66666666666663" y1="157.0" x2="325.0" y2="166.33333333333331" stroke="#000000" stroke-width="2.0" />
    <line x1="311.0" y1="157.0" x2="311.0" y2="157.0" stroke="#000000" stroke-width="2.0" />
    <line x1="311.0" y1="171.0" x2="325.0" y2="157.0" stroke="#000000" stroke-width="2.0" />
    <line x1="311.0" y1="161.66666666666669" x2="315.66666666666663" y2="157.0" stroke="#000000" stroke-width="2.0" />
    <line x1="315.66666666666663" y1="171.0" x2="325.0" y2="161.66666666666669" stroke="#000000" stroke-width="2.0" />
    <line x1="311.0" y1="166.33333333333331" x2="320.33333333333337" y2="157.0" stroke="#000000" stroke-width="2.0" />
    <line x1="320.33333333333337" y1="171.0" x2="325.0" y2="166.33333333333331" stroke="#000000" stroke-width="2.0" />
    <line x1="311.0" y1="171.0" x2="325.0" y2="185.0" stroke="#000000" stroke-width="2.0" />
    <line x1="325.0" y1="171.0" x2="325.0" y2="171.0" stroke="#000000" stroke-width="2.0" />
    <line x1="311.0" y1="175.66666666666669" x2="320.33333333333337" y2="185.0" stroke="#000000" stroke-width="2.0" />
    <line x1="320.33333333333337" y1="171.0" x2="325.0" y2="175.66666666666669" stroke="#000000" stroke-width="2.0" />
    <line x1="311.0" y1="180.33333333333331" x2="315.66666666666663" y2="185.0" stroke="#000000" stroke-width="2.0" />
    <line x1="315.66666666666663" y1="171.0" x2="325.0" y2="180.33333333333331" stroke="#000000" stroke-width="2.0" />
    <line x1="311.0" y1="171.0" x2="311.0" y2="171.0" stroke="#000000" stroke-width="2.0" />
    <line x1="311.0" y1="185.0" x2="325.0" y2="171.0" stroke="#000000" stroke-width="2.0" />
    <line x1="311.0" y1="175.66666666666669" x2="315.66666666666663" y2="171.0" stroke="#000000" stroke-width="2.0" />
    <line x1="315.66666666666663" y1="185.0" x2="325.0" y2="175.66666666666669" stroke="#000000" stroke-width="2.0" />
    <line x1="311.0" y1="180.33333333333331" x2="320.33333333333337" y2="171.0" stroke="#000000" stroke-width="2.0" />
    <line x1="320.33333333333337" y1="185.0" x2="325.0" y2="180.33333333333331" stroke="#000000" stroke-width="2.0" />
</g>
<g>
    <line x1="327.33333333333337" y1="157.0" x2="327.33333333333337" y2="171.0" stroke="#000000" stroke-width="2.0" />
    <line x1="334.33333333333337" y1="157.0" x2="334.33333333333337" y2="171.0" stroke="#000000" stroke-width="2.0" />
    <line x1="327.33333333333337" y1="171.0" x2="327.33333333333337" y2="185.0" stroke="#000000" stroke-width="2.0" />
    <line x1="334.33333333333337" y1="171.0" x2="334.33333333333337" y2="185.0" stroke="#000000" stroke-width="2.0" />
</g>
<g>
    <line x1="339.0" y1="157.0" x2="339.0" y2="157.0" stroke="#000000" stroke-width="2.0" />
    <line x1="339.0" y1="171.0" x2="353.0" y2="157.0" stroke="#000000" stroke-width="2.0" />
    <line x1="339.0" y1="164.0" x2="346.0" y2="157.0" stroke="#000000" stroke-width="2.0" />
    <line x1="346.0" y1="171.0" x2="353.0" y2="164.0" stroke="#000000" stroke-width="2.0" />
    <line x1="339.0" y1="171.0" x2="339.0" y2="171.0" stroke="#000000" stroke-width="2.0" />
    <line x1="339.0" y1="185.0" x2="353.0" y2="171.0" stroke="#000000" stroke-width="2.0" />
    <line x1="339.0" y1="178.0" x2="346.0" y2="171.0" stroke="#000000" stroke-width="2.0" />
    <line x1="346.0" y1="185.0" x2="353.0" y2="178.0" stroke="#000000" stroke-width="2.0" />
</g>
<g>
    <line x1="172.16666666666669" y1="269.0" x2="172.16666666666669" y2="283.0" stroke="#000000" stroke-width="2.0" />
    <line x1="176.83333333333331" y1="269.0" x2="176.83333333333331" y2="283.0" stroke="#000000" stroke-width="2.0" />
    <line x1="181.5" y1="269.0" x2="181.5" y2="283.0" stroke="#000000" stroke-width="2.0" />
    <line x1="171.0" y1="270.16666666666663" x2="185.0" y2="270.16666666666663" stroke="#000000" stroke-width="2.0" />
    <line x1="171.0" y1="274.83333333333337" x2="185.0" y2="274.83333333333337" stroke="#000000" stroke-width="2.0" />
    <line x1="171.0" y1="279.5" x2="185.0" y2="279.5" stroke="#000000" stroke-width="2.0" />
    <line x1="185.0" y1="269.0" x2="185.0" y2="283.0" stroke="#000000" stroke-width="2.0" />
    <line x1="171.0" y1="269.0" x2="171.0" y2="283.0" stroke="#000000" stroke-width="2.0" />
    <line x1="171.0" y1="269.0" x2="185.0" y2="269.0" stroke="#000000" stroke-width="2.0" />
    <line x1="172.16666666666669" y1="283.0" x2="172.16666666666669" y2="297.0" stroke="#000000" stroke-width="2.0" />
    <line x1="176.83333333333331" y1="283.0" x2="176.83333333333331" y2="297.0" stroke="#000000" stroke-width="2.0" />
    <line x1="181.5" y1="283.0" x2="181.5" y2="297.0" stroke="#000000" stroke-width="2.0" />
    <line x1="171.0" y1="284.16666666666663" x2="185.0" y2="284.16666666666663" stroke="#000000" stroke-width="2.0" />
    <line x1="171.0" y1="288.83333333333337" x2="185.0" y2="288.83333333333337" stroke="#000000" stroke-width="2.0" />
    <line x1="171.0" y1="293.5" x2="185.0" y2="293.5" stroke="#000000" stroke-width="2.0" />
    <line x1="185.0" y1="283.0" x2="185.0" y2="297.0" stroke="#000000" stroke-width="2.0" />
    <line x1="171.0" y1="283.0" x2="171.0" y2="297.0" stroke="#000000" stroke-width="2.0" />
    <line x1="171.0" y1="297.0" x2="185.0" y2="297.0" stroke="#000000" stroke-width="2.0" />
</g>
<g>
    <line x1="185.0" y1="269.0" x2="185.0" y2="269.0" stroke="#000000" stroke-width="2.0" />
    <line x1="185.0" y1="283.0" x2="199.0" y2="269.0" stroke="#000000" stroke-width="2.0" />
    <line x1="185.0" y1="276.0" x2="192.0" y2="269.0" stroke="#000000" stroke-width="2.0" />
    <line x1="192.0" y1="283.0" x2="199.0" y2="276.0" stroke="#000000" stroke-width="2.0" />
    <line x1="185.0" y1="283.0" x2="185.0" y2="283.0" stroke="#000000" stroke-width="2.0" />
    <line x1="185.0" y1="297.0" x2="199.0" y2="283.0" stroke="#000000" stroke-width="2.0" />
    <line x1="185.0" y1="290.0" x2="192.0" y2="283.0" stroke="#000000" stroke-width="2.0" />
    <line x1="192.0" y1="297.0" x2="199.0" y2="290.0" stroke="#000000" stroke-width="2.0" />
</g>
<g>
    <text x="199.0" y="280.90000000000003" font-family="monospace" font-size="14.0" fill="#000000" >
  ?
    </text>
    <text x="199.0" y="294.90000000000003" font-family="monospace" font-size="14.0" fill="#000000" >
  ?
    </text>
</g>
<g>
    <line x1="214.16666666666669" y1="269.0" x2="214.16666666666669" y2="283.0" stroke="#000000" stroke-width="2.0" />
    <line x1="218.83333333333331" y1="269.0" x2="218.83333333333331" y2="283.0" stroke="#000000" stroke-width="2.0" />
    <line x1="223.5" y1="269.0" x2="223.5" y2="283.0" stroke="#000000" stroke-width="2.0" />
    <line x1="214.16666666666669" y1="283.0" x2="214.16666666666669" y2="297.0" stroke="#000000" stroke-width="2.0" />
    <line x1="218.83333333333331" y1="283.0" x2="218.83333333333331" y2="297.0" stroke="#000000" stroke-width="2.0" />
    <line x1="223.5" y1="283.0" x2="223.5" y2="297.0" stroke="#000000" stroke-width="2.0" />
</g>
<g>
    <line x1="229.33333333333334" y1="269.0" x2="229.33333333333334" y2="283.0" stroke="#000000" stroke-width="2.0" />
    <line x1="236.33333333333334" y1="269.0" x2="236.33333333333334" y2="283.0" stroke="#000000" stroke-width="2.0" />
    <line x1="227.0" y1="271.33333333333337" x2="241.0" y2="271.33333333333337" stroke="#000000" stroke-width="2.0" />
    <line x1="227.0" y1="278.33333333333337" x2="241.0" y2="278.33333333333337" stroke="#000000" stroke-width="2.0" />
    <line x1="229.33333333333334" y1="283.0" x2="229.33333333333334" y2="297.0" stroke="#000000" stroke-width="2.0" />
    <line x1="236.33333333333334" y1="283.0" x2="236.33333333333334" y2="297.0" stroke="#000000" stroke-width="2.0" />
    <line x1="227.0" y1="285.33333333333337" x2="241.0" y2="285.33333333333337" stroke="#000000" stroke-width="2.0" />
    <line x1="227.0" y1="292.33333333333337" x2="241.0" y2="292.33333333333337" stroke="#000000" stroke-width="2.0" />
</g>
<g>
    <line x1="241.0" y1="271.33333333333337" x2="255.0" y2="271.33333333333337" stroke="#000000" stroke-width="2.0" />
    <line x1="241.0" y1="278.33333333333337" x2="255.0" y2="278.33333333333337" stroke="#000000" stroke-width="2.0" />
    <line x1="241.0" y1="285.33333333333337" x2="255.0" y2="285.33333333333337" stroke="#000000" stroke-width="2.0" />
    <line x1="241.0" y1="292.33333333333337" x2="255.0" y2="292.33333333333337" stroke="#000000" stroke-width="2.0" />
</g>
<g>
    <text x="255.0" y="280.90000000000003" font-family="monospace" font-size="14.0" fill="#000000" >
  ?
    </text>
    <text x="255.0" y="294.90000000000003" font-family="monospace" font-size="14.0" fill="#000000" >
  ?
    </text>
</g>
<g>
    <line x1="269.0" y1="269.0" x2="269.0" y2="269.0" stroke="#000000" stroke-width="2.0" />
    <line x1="269.0" y1="283.0" x2="283.0" y2="269.0" stroke="#000000" stroke-width="2.0" />
    <line x1="269.0" y1="276.0" x2="276.0" y2="269.0" stroke="#000000" stroke-width="2.0" />
    <line x1="276.0" y1="283.0" x2="283.0" y2="276.0" stroke="#000000" stroke-width="2.0" />
    <line x1="269.0" y1="283.0" x2="269.0" y2="283.0" stroke="#000000" stroke-width="2.0" />
    <line x1="269.0" y1="297.0" x2="283.0" y2="283.0" stroke="#000000" stroke-width="2.0" />
    <line x1="269.0" y1="290.0" x2="276.0" y2="283.0" stroke="#000000" stroke-width="2.0" />
    <line x1="276.0" y1="297.0" x2="283.0" y2="290.0" stroke="#000000" stroke-width="2.0" />
</g>
<g>
    <line x1="306.898" y1="269.0" x2="311.0" y2="273.102" stroke="#000000" stroke-width="2.0" />
    <line x1="297.0" y1="278.898" x2="301.102" y2="283.0" stroke="#000000" stroke-width="2.0" />
    <line x1="311.0" y1="269.0" x2="311.0" y2="283.0" stroke="#000000" stroke-width="2.0" />
    <line x1="297.0" y1="269.0" x2="297.0" y2="283.0" stroke="#000000" stroke-width="2.0" />
    <line x1="297.0" y1="269.0" x2="311.0" y2="269.0" stroke="#000000" stroke-width="2.0" />
    <line x1="306.898" y1="283.0" x2="311.0" y2="287.102" stroke="#000000" stroke-width="2.0" />
    <line x1="297.0" y1="292.898" x2="301.102" y2="297.0" stroke="#000000" stroke-width="2.0" />
    <line x1="311.0" y1="283.0" x2="311.0" y2="297.0" stroke="#000000" stroke-width="2.0" />
    <line x1="297.0" y1="283.0" x2="297.0" y2="297.0" stroke="#000000" stroke-width="2.0" />
    <line x1="297.0" y1="297.0" x2="311.0" y2="297.0" stroke="#000000" stroke-width="2.0" />
</g>
<g>
    <line x1="311.0" y1="269.0" x2="325.0" y2="283.0" stroke="#000000" stroke-width="2.0" />
    <line x1="325.0" y1="269.0" x2="325.0" y2="269.0" stroke="#000000" stroke-width="2.0" />
    <line x1="311.0" y1="273.66666666666663" x2="320.33333333333337" y2="283.0" stroke="#000000" stroke-width="2.0" />
    <line x1="320.33333333333337" y1="269.0" x2="325.0" y2="273.66666666666663" stroke="#000000" stroke-width="2.0" />
    <line x1="311.0" y1="278.33333333333337" x2="315.66666666666663" y2="283.0" stroke="#000000" stroke-width="2.0" />
    <line x1="315.66666666666663" y1="269.0" x2="325.0" y2="278.33333333333337" stroke="#000000" stroke-width="2.0" />
    <line x1="311.0" y1="269.0" x2="311.0" y2="269.0" stroke="#000000" stroke-width="2.0" />
    <line x1="311.0" y1="283.0" x2="325.0" y2="269.0" stroke="#000000" stroke-width="2.0" />
    <line x1="311.0" y1="273.66666666666663" x2="315.66666666666663" y2="269.0" stroke="#000000" stroke-width="2.0" />
    <line x1="315.66666666666663" y1="283.0" x2="325.0" y2="273.66666666666663" stroke="#000000" stroke-width="2.0" />
    <line x1="311.0" y1="278.33333333333337" x2="320.33333333333337" y2="269.0" stroke="#000000" stroke-width="2.0" />
    <line x1="320.33333333333337" y1="283.0" x2="325.0" y2="278.33333333333337" stroke="#000000" stroke-width="2.0" />
    <line x1="311.0" y1="283.0" x2="325.0" y2="297.0" stroke="#000000" stroke-width="2.0" />
    <line x1="325.0" y1="283.0" x2="325.0" y2="283.0" stroke="#000000" stroke-width="2.0" />
    <line x1="311.0" y1="287.66666666666663" x2="320.33333333333337" y2="297.0" stroke="#000000" stroke-width="2.0" />
    <line x1="320.33333333333337" y1="283.0" x2="325.0" y2="287.66666666666663" stroke="#000000" stroke-width="2.0" />
    <line x1="311.0" y1="292.33333333333337" x2="315.66666666666663" y2="297.0" stroke="#000000" stroke-width="2.0" />
    <line x1="315.66666666666663" y1="283.0" x2="325.0" y2="292.33333333333337" stroke="#000000" stroke-width="2.0" />
    <line x1="311.0" y1="283.0" x2="311.0" y2="283.0" stroke="#000000" stroke-width="2.0" />
    <line x1="311.0" y1="297.0" x2="325.0" y2="283.0" stroke="#000000" stroke-width="2.0" />
    <line x1="311.0" y1="287.66666666666663" x2="315.66666666666663" y2="283.0" stroke="#000000" stroke-width="2.0" />
    <line x1="315.66666666666663" y1="297.0" x2="325.0" y2="287.66666666666663" stroke="#000000" stroke-width="2.0" />
    <line x1="311.0" y1="292.33333333333337" x2="320.33333333333337" y2="283.0" stroke="#000000" stroke-width="2.0" />
    <line x1="320.33333333333337" y1="297.0" x2="325.0" y2="292.33333333333337" stroke="#000000" stroke-width="2.0" />
</g>
<g>
    <line x1="327.33333333333337" y1="269.0" x2="327.33333333333337" y2="283.0" stroke="#000000" stroke-width="2.0" />
    <line x1="334.33333333333337" y1="269.0" x2="334.33333333333337" y2="283.0" stroke="#000000" stroke-width="2.0" />
    <line x1="327.33333333333337" y1="283.0" x2="327.33333333333337" y2="297.0" stroke="#000000" stroke-width="2.0" />
    <line x1="334.33333333333337" y1="283.0" x2="334.33333333333337" y2="297.0" stroke="#000000" stroke-width="2.0" />
</g>
<g>
    <line x1="339.0" y1="269.0" x2="339.0" y2="269.0" stroke="#000000" stroke-width="2.0" />
    <line x1="339.0" y1="283.0" x2="353.0" y2="269.0" stroke="#000000" stroke-width="2.0" />
    <line x1="339.0" y1="276.0" x2="346.0" y2="269.0" stroke="#000000" stroke-width="2.0" />
    <line x1="346.0" y1="283.0" x2="353.0" y2="276.0" stroke="#000000" stroke-width="2.0" />
    <line x1="339.0" y1="283.0" x2="339.0" y2="283.0" stroke="#000000" stroke-width="2.0" />
    <line x1="339.0" y1="297.0" x2="353.0" y2="283.0" stroke="#000000" stroke-width="2.0" />
    <line x1="339.0" y1="290.0" x2="346.0" y2="283.0" stroke="#000000" stroke-width="2.0" />
    <line x1="346.0" y1="297.0" x2="353.0" y2="290.0" stroke="#000000" stroke-width="2.0" />
</g>
<text x="3.0" y="14.9" font-family="monospace" font-size="14.0" fill="#000000" >
  Website:
</text>
<text x="3.0" y="42.9" font-family="monospace" font-size="14.0" fill="#000000" >
  Pinged every :
</text>
<text x="3.0" y="70.89999999999999" font-family="monospace" font-size="14.0" fill="#000000" >
  Over the last 2 mins:
</text>
<text x="59.0" y="84.89999999999999" font-family="monospace" font-size="14.0" fill="#000000" >
  Availability
</text>
<text x="213.0" y="98.89999999999999" font-family="monospace" font-size="14.0" fill="#000000" >
  down since
</text>
<text x="213.0" y="112.89999999999999" font-family="monospace" font-size="14.0" fill="#000000" >
  is back online since
</text>
<text x="3.0" y="154.9" font-family="monospace" font-size="14.0" fill="#000000" >
  Over the last 10 mins:
</text>
<text x="59.0" y="168.9" font-family="monospace" font-size="14.0" fill="#000000" >
  Average
</text>
<text x="59.0" y="182.9" font-family="monospace" font-size="14.0" fill="#000000" >
  Maximum
</text>
<text x="59.0" y="196.9" font-family="monospace" font-size="14.0" fill="#000000" >
  Response Code Count:
</text>
<text x="3.0" y="266.90000000000003" font-family="monospace" font-size="14.0" fill="#000000" >
  Over the last 60 mins:
</text>
<text x="59.0" y="280.90000000000003" font-family="monospace" font-size="14.0" fill="#000000" >
  Average
</text>
<text x="59.0" y="294.90000000000003" font-family="monospace" font-size="14.0" fill="#000000" >
  Maximum
</text>
<text x="59.0" y="308.90000000000003" font-family="monospace" font-size="14.0" fill="#000000" >
  Response Code Count:
</text>
</svg>
