<?xml version="1.0" standalone="no"?>
<!DOCTYPE svg PUBLIC "-//W3C//DTD SVG 1.1//EN" "http://www.w3.org/Graphics/SVG/1.1/DTD/svg11.dtd">

<svg width="734.0" height="300.0" viewBox="0 0 734.0 300.0" version="1.1" xmlns="http://www.w3.org/2000/svg" xmlns:xlink="http://www.w3.org/1999/xlink">
<!-- automatically generated by aafigure --><text x="17.0" y="70.89999999999999" font-family="monospace" font-size="14.0" fill="#000000" >
  Over the last 2 mins:
</text>
<text x="59.0" y="84.89999999999999" font-family="monospace" font-size="14.0" fill="#000000" >
  Availability                    : --,--%
</text>
<text x="59.0" y="98.89999999999999" font-family="monospace" font-size="14.0" fill="#000000" >
  Website is down since           : ------------
</text>
<text x="59.0" y="112.89999999999999" font-family="monospace" font-size="14.0" fill="#000000" >
  Website is is back online since : ------------
</text>
<text x="353.0" y="140.9" font-family="monospace" font-size="14.0" fill="#000000" >
  : -----
</text>
<text x="367.0" y="154.9" font-family="monospace" font-size="14.0" fill="#000000" >
  : -----
</text>
<text x="129.0" y="182.9" font-family="monospace" font-size="14.0" fill="#000000" >
  --- : -----
</text>
<text x="129.0" y="196.9" font-family="monospace" font-size="14.0" fill="#000000" >
  --- : -----
</text>
<text x="129.0" y="210.9" font-family="monospace" font-size="14.0" fill="#000000" >
  --- : -----
</text>
<text x="367.0" y="238.90000000000003" font-family="monospace" font-size="14.0" fill="#000000" >
  : -----
</text>
<text x="367.0" y="252.90000000000003" font-family="monospace" font-size="14.0" fill="#000000" >
  : -----
</text>
<text x="129.0" y="280.90000000000003" font-family="monospace" font-size="14.0" fill="#000000" >
  --- : -----
</text>
<text x="129.0" y="294.90000000000003" font-family="monospace" font-size="14.0" fill="#000000" >
  --- : -----
</text>
<g>
    <line x1="172.16666666666669" y1="227.0" x2="172.16666666666669" y2="241.0" stroke="#000000" stroke-width="2.0" />
    <line x1="176.83333333333331" y1="227.0" x2="176.83333333333331" y2="241.0" stroke="#000000" stroke-width="2.0" />
    <line x1="181.5" y1="227.0" x2="181.5" y2="241.0" stroke="#000000" stroke-width="2.0" />
    <line x1="171.0" y1="228.16666666666666" x2="185.0" y2="228.16666666666666" stroke="#000000" stroke-width="2.0" />
    <line x1="171.0" y1="232.83333333333334" x2="185.0" y2="232.83333333333334" stroke="#000000" stroke-width="2.0" />
    <line x1="171.0" y1="237.5" x2="185.0" y2="237.5" stroke="#000000" stroke-width="2.0" />
    <line x1="185.0" y1="227.0" x2="185.0" y2="241.0" stroke="#000000" stroke-width="2.0" />
    <line x1="171.0" y1="227.0" x2="171.0" y2="241.0" stroke="#000000" stroke-width="2.0" />
    <line x1="171.0" y1="227.0" x2="185.0" y2="227.0" stroke="#000000" stroke-width="2.0" />
    <line x1="172.16666666666669" y1="241.0" x2="172.16666666666669" y2="255.0" stroke="#000000" stroke-width="2.0" />
    <line x1="176.83333333333331" y1="241.0" x2="176.83333333333331" y2="255.0" stroke="#000000" stroke-width="2.0" />
    <line x1="181.5" y1="241.0" x2="181.5" y2="255.0" stroke="#000000" stroke-width="2.0" />
    <line x1="171.0" y1="242.16666666666666" x2="185.0" y2="242.16666666666666" stroke="#000000" stroke-width="2.0" />
    <line x1="171.0" y1="246.83333333333334" x2="185.0" y2="246.83333333333334" stroke="#000000" stroke-width="2.0" />
    <line x1="171.0" y1="251.5" x2="185.0" y2="251.5" stroke="#000000" stroke-width="2.0" />
    <line x1="185.0" y1="241.0" x2="185.0" y2="255.0" stroke="#000000" stroke-width="2.0" />
    <line x1="171.0" y1="241.0" x2="171.0" y2="255.0" stroke="#000000" stroke-width="2.0" />
    <line x1="171.0" y1="255.0" x2="185.0" y2="255.0" stroke="#000000" stroke-width="2.0" />
</g>
<g>
    <line x1="185.0" y1="227.0" x2="185.0" y2="227.0" stroke="#000000" stroke-width="2.0" />
    <line x1="185.0" y1="241.0" x2="199.0" y2="227.0" stroke="#000000" stroke-width="2.0" />
    <line x1="185.0" y1="234.0" x2="192.0" y2="227.0" stroke="#000000" stroke-width="2.0" />
    <line x1="192.0" y1="241.0" x2="199.0" y2="234.0" stroke="#000000" stroke-width="2.0" />
    <line x1="185.0" y1="241.0" x2="185.0" y2="241.0" stroke="#000000" stroke-width="2.0" />
    <line x1="185.0" y1="255.0" x2="199.0" y2="241.0" stroke="#000000" stroke-width="2.0" />
    <line x1="185.0" y1="248.0" x2="192.0" y2="241.0" stroke="#000000" stroke-width="2.0" />
    <line x1="192.0" y1="255.0" x2="199.0" y2="248.0" stroke="#000000" stroke-width="2.0" />
</g>
<g>
    <text x="199.0" y="238.90000000000003" font-family="monospace" font-size="14.0" fill="#000000" >
  ?
    </text>
    <text x="199.0" y="252.90000000000003" font-family="monospace" font-size="14.0" fill="#000000" >
  ?
    </text>
</g>
<g>
    <line x1="214.16666666666669" y1="227.0" x2="214.16666666666669" y2="241.0" stroke="#000000" stroke-width="2.0" />
    <line x1="218.83333333333331" y1="227.0" x2="218.83333333333331" y2="241.0" stroke="#000000" stroke-width="2.0" />
    <line x1="223.5" y1="227.0" x2="223.5" y2="241.0" stroke="#000000" stroke-width="2.0" />
    <line x1="214.16666666666669" y1="241.0" x2="214.16666666666669" y2="255.0" stroke="#000000" stroke-width="2.0" />
    <line x1="218.83333333333331" y1="241.0" x2="218.83333333333331" y2="255.0" stroke="#000000" stroke-width="2.0" />
    <line x1="223.5" y1="241.0" x2="223.5" y2="255.0" stroke="#000000" stroke-width="2.0" />
</g>
<g>
    <line x1="229.33333333333334" y1="227.0" x2="229.33333333333334" y2="241.0" stroke="#000000" stroke-width="2.0" />
    <line x1="236.33333333333334" y1="227.0" x2="236.33333333333334" y2="241.0" stroke="#000000" stroke-width="2.0" />
    <line x1="227.0" y1="229.33333333333334" x2="241.0" y2="229.33333333333334" stroke="#000000" stroke-width="2.0" />
    <line x1="227.0" y1="236.33333333333334" x2="241.0" y2="236.33333333333334" stroke="#000000" stroke-width="2.0" />
    <line x1="229.33333333333334" y1="241.0" x2="229.33333333333334" y2="255.0" stroke="#000000" stroke-width="2.0" />
    <line x1="236.33333333333334" y1="241.0" x2="236.33333333333334" y2="255.0" stroke="#000000" stroke-width="2.0" />
    <line x1="227.0" y1="243.33333333333334" x2="241.0" y2="243.33333333333334" stroke="#000000" stroke-width="2.0" />
    <line x1="227.0" y1="250.33333333333334" x2="241.0" y2="250.33333333333334" stroke="#000000" stroke-width="2.0" />
</g>
<g>
    <line x1="241.0" y1="229.33333333333334" x2="255.0" y2="229.33333333333334" stroke="#000000" stroke-width="2.0" />
    <line x1="241.0" y1="236.33333333333334" x2="255.0" y2="236.33333333333334" stroke="#000000" stroke-width="2.0" />
    <line x1="241.0" y1="243.33333333333334" x2="255.0" y2="243.33333333333334" stroke="#000000" stroke-width="2.0" />
    <line x1="241.0" y1="250.33333333333334" x2="255.0" y2="250.33333333333334" stroke="#000000" stroke-width="2.0" />
</g>
<g>
    <text x="255.0" y="238.90000000000003" font-family="monospace" font-size="14.0" fill="#000000" >
  ?
    </text>
    <text x="255.0" y="252.90000000000003" font-family="monospace" font-size="14.0" fill="#000000" >
  ?
    </text>
</g>
<g>
    <line x1="269.0" y1="227.0" x2="269.0" y2="227.0" stroke="#000000" stroke-width="2.0" />
    <line x1="269.0" y1="241.0" x2="283.0" y2="227.0" stroke="#000000" stroke-width="2.0" />
    <line x1="269.0" y1="234.0" x2="276.0" y2="227.0" stroke="#000000" stroke-width="2.0" />
    <line x1="276.0" y1="241.0" x2="283.0" y2="234.0" stroke="#000000" stroke-width="2.0" />
    <line x1="269.0" y1="241.0" x2="269.0" y2="241.0" stroke="#000000" stroke-width="2.0" />
    <line x1="269.0" y1="255.0" x2="283.0" y2="241.0" stroke="#000000" stroke-width="2.0" />
    <line x1="269.0" y1="248.0" x2="276.0" y2="241.0" stroke="#000000" stroke-width="2.0" />
    <line x1="276.0" y1="255.0" x2="283.0" y2="248.0" stroke="#000000" stroke-width="2.0" />
</g>
<g>
    <line x1="306.898" y1="227.0" x2="311.0" y2="231.10199999999998" stroke="#000000" stroke-width="2.0" />
    <line x1="297.0" y1="236.89800000000002" x2="301.102" y2="241.0" stroke="#000000" stroke-width="2.0" />
    <line x1="311.0" y1="227.0" x2="311.0" y2="241.0" stroke="#000000" stroke-width="2.0" />
    <line x1="297.0" y1="227.0" x2="297.0" y2="241.0" stroke="#000000" stroke-width="2.0" />
    <line x1="297.0" y1="227.0" x2="311.0" y2="227.0" stroke="#000000" stroke-width="2.0" />
    <line x1="306.898" y1="241.0" x2="311.0" y2="245.10199999999998" stroke="#000000" stroke-width="2.0" />
    <line x1="297.0" y1="250.89800000000002" x2="301.102" y2="255.0" stroke="#000000" stroke-width="2.0" />
    <line x1="311.0" y1="241.0" x2="311.0" y2="255.0" stroke="#000000" stroke-width="2.0" />
    <line x1="297.0" y1="241.0" x2="297.0" y2="255.0" stroke="#000000" stroke-width="2.0" />
    <line x1="297.0" y1="255.0" x2="311.0" y2="255.0" stroke="#000000" stroke-width="2.0" />
</g>
<g>
    <line x1="311.0" y1="227.0" x2="325.0" y2="241.0" stroke="#000000" stroke-width="2.0" />
    <line x1="325.0" y1="227.0" x2="325.0" y2="227.0" stroke="#000000" stroke-width="2.0" />
    <line x1="311.0" y1="231.66666666666666" x2="320.33333333333337" y2="241.0" stroke="#000000" stroke-width="2.0" />
    <line x1="320.33333333333337" y1="227.0" x2="325.0" y2="231.66666666666666" stroke="#000000" stroke-width="2.0" />
    <line x1="311.0" y1="236.33333333333334" x2="315.66666666666663" y2="241.0" stroke="#000000" stroke-width="2.0" />
    <line x1="315.66666666666663" y1="227.0" x2="325.0" y2="236.33333333333334" stroke="#000000" stroke-width="2.0" />
    <line x1="311.0" y1="227.0" x2="311.0" y2="227.0" stroke="#000000" stroke-width="2.0" />
    <line x1="311.0" y1="241.0" x2="325.0" y2="227.0" stroke="#000000" stroke-width="2.0" />
    <line x1="311.0" y1="231.66666666666666" x2="315.66666666666663" y2="227.0" stroke="#000000" stroke-width="2.0" />
    <line x1="315.66666666666663" y1="241.0" x2="325.0" y2="231.66666666666666" stroke="#000000" stroke-width="2.0" />
    <line x1="311.0" y1="236.33333333333334" x2="320.33333333333337" y2="227.0" stroke="#000000" stroke-width="2.0" />
    <line x1="320.33333333333337" y1="241.0" x2="325.0" y2="236.33333333333334" stroke="#000000" stroke-width="2.0" />
    <line x1="311.0" y1="241.0" x2="325.0" y2="255.0" stroke="#000000" stroke-width="2.0" />
    <line x1="325.0" y1="241.0" x2="325.0" y2="241.0" stroke="#000000" stroke-width="2.0" />
    <line x1="311.0" y1="245.66666666666666" x2="320.33333333333337" y2="255.0" stroke="#000000" stroke-width="2.0" />
    <line x1="320.33333333333337" y1="241.0" x2="325.0" y2="245.66666666666666" stroke="#000000" stroke-width="2.0" />
    <line x1="311.0" y1="250.33333333333334" x2="315.66666666666663" y2="255.0" stroke="#000000" stroke-width="2.0" />
    <line x1="315.66666666666663" y1="241.0" x2="325.0" y2="250.33333333333334" stroke="#000000" stroke-width="2.0" />
    <line x1="311.0" y1="241.0" x2="311.0" y2="241.0" stroke="#000000" stroke-width="2.0" />
    <line x1="311.0" y1="255.0" x2="325.0" y2="241.0" stroke="#000000" stroke-width="2.0" />
    <line x1="311.0" y1="245.66666666666666" x2="315.66666666666663" y2="241.0" stroke="#000000" stroke-width="2.0" />
    <line x1="315.66666666666663" y1="255.0" x2="325.0" y2="245.66666666666666" stroke="#000000" stroke-width="2.0" />
    <line x1="311.0" y1="250.33333333333334" x2="320.33333333333337" y2="241.0" stroke="#000000" stroke-width="2.0" />
    <line x1="320.33333333333337" y1="255.0" x2="325.0" y2="250.33333333333334" stroke="#000000" stroke-width="2.0" />
</g>
<g>
    <line x1="327.33333333333337" y1="227.0" x2="327.33333333333337" y2="241.0" stroke="#000000" stroke-width="2.0" />
    <line x1="334.33333333333337" y1="227.0" x2="334.33333333333337" y2="241.0" stroke="#000000" stroke-width="2.0" />
    <line x1="327.33333333333337" y1="241.0" x2="327.33333333333337" y2="255.0" stroke="#000000" stroke-width="2.0" />
    <line x1="334.33333333333337" y1="241.0" x2="334.33333333333337" y2="255.0" stroke="#000000" stroke-width="2.0" />
</g>
<g>
    <line x1="339.0" y1="227.0" x2="339.0" y2="227.0" stroke="#000000" stroke-width="2.0" />
    <line x1="339.0" y1="241.0" x2="353.0" y2="227.0" stroke="#000000" stroke-width="2.0" />
    <line x1="339.0" y1="234.0" x2="346.0" y2="227.0" stroke="#000000" stroke-width="2.0" />
    <line x1="346.0" y1="241.0" x2="353.0" y2="234.0" stroke="#000000" stroke-width="2.0" />
    <line x1="339.0" y1="241.0" x2="339.0" y2="241.0" stroke="#000000" stroke-width="2.0" />
    <line x1="339.0" y1="255.0" x2="353.0" y2="241.0" stroke="#000000" stroke-width="2.0" />
    <line x1="339.0" y1="248.0" x2="346.0" y2="241.0" stroke="#000000" stroke-width="2.0" />
    <line x1="346.0" y1="255.0" x2="353.0" y2="248.0" stroke="#000000" stroke-width="2.0" />
</g>
<text x="17.0" y="14.9" font-family="monospace" font-size="14.0" fill="#000000" >
  :textual:
</text>
<text x="17.0" y="42.9" font-family="monospace" font-size="14.0" fill="#000000" >
  Website:
</text>
<text x="17.0" y="56.9" font-family="monospace" font-size="14.0" fill="#000000" >
  Pinged every :
</text>
<text x="3.0" y="126.89999999999999" font-family="monospace" font-size="14.0" fill="#000000" >
  Over the last 10 mins:
</text>
<text x="45.0" y="140.9" font-family="monospace" font-size="14.0" fill="#000000" >
  Average Response Time
</text>
<text x="59.0" y="154.9" font-family="monospace" font-size="14.0" fill="#000000" >
  Maximum Response Time
</text>
<text x="59.0" y="168.9" font-family="monospace" font-size="14.0" fill="#000000" >
  Response Code Count:
</text>
<text x="3.0" y="224.9" font-family="monospace" font-size="14.0" fill="#000000" >
  Over the last 60 mins:
</text>
<text x="59.0" y="238.90000000000003" font-family="monospace" font-size="14.0" fill="#000000" >
  Average
</text>
<text x="59.0" y="252.90000000000003" font-family="monospace" font-size="14.0" fill="#000000" >
  Maximum
</text>
<text x="59.0" y="266.90000000000003" font-family="monospace" font-size="14.0" fill="#000000" >
  Response Code Count:
</text>
</svg>
